<svg width="61" height="61" viewBox="0 0 61 61" fill="none" xmlns="http://www.w3.org/2000/svg">
<rect x="6.38098" y="30.8752" width="6.8725" height="6.8725" fill="white"/>
<rect x="13.2535" y="24.0028" width="6.8725" height="6.8725" fill="white"/>
<rect x="20.1259" y="17.1302" width="6.8725" height="6.8725" fill="white"/>
<rect x="26.9987" y="10.2578" width="6.8725" height="6.8725" fill="white"/>
<rect x="33.8711" y="3.38525" width="6.8725" height="6.8725" fill="white"/>
<rect x="40.7438" y="10.2578" width="6.8725" height="6.8725" fill="white"/>
<rect x="26.9987" y="37.7478" width="6.8725" height="6.8725" fill="white"/>
<rect x="33.8711" y="30.8752" width="6.8725" height="6.8725" fill="white"/>
<rect x="40.7438" y="24.0027" width="6.8725" height="6.8725" fill="white"/>
<rect x="47.6162" y="17.1302" width="6.8725" height="6.8725" fill="white"/>
<rect x="13.2534" y="37.7478" width="6.8725" height="6.8725" fill="white"/>
<rect x="0.510864" y="51.4928" width="6.8725" height="6.8725" fill="#1FD5F9"/>
<rect x="7.3833" y="51.4928" width="6.8725" height="6.8725" fill="#1FD5F9"/>
<rect x="0.510864" y="44.6202" width="6.8725" height="6.8725" fill="#1FD5F9"/>
<rect x="20.1259" y="44.6202" width="6.8725" height="6.8725" fill="white"/>
</svg>
